<svg width="35" height="34" viewBox="0 0 35 34" fill="none" xmlns="http://www.w3.org/2000/svg">
<rect x="0.0693359" width="34" height="34" rx="6" fill="white"/>
<path d="M17.0702 10.2C15.2234 10.2 14.9916 10.208 14.2663 10.241C13.5423 10.2742 13.0482 10.3888 12.6158 10.557C12.1686 10.7306 11.7892 10.963 11.4112 11.3411C11.033 11.719 10.8006 12.0984 10.6264 12.5455C10.4578 12.978 10.3431 13.4723 10.3105 14.1959C10.278 14.9213 10.2695 15.1532 10.2695 17C10.2695 18.8467 10.2777 19.0778 10.3106 19.8031C10.3439 20.527 10.4585 21.0212 10.6265 21.4535C10.8004 21.9008 11.0327 22.2802 11.4108 22.6581C11.7886 23.0364 12.168 23.2693 12.615 23.443C13.0476 23.6111 13.5419 23.7257 14.2657 23.7589C14.991 23.7919 15.2227 23.8 17.0693 23.8C18.9162 23.8 19.1473 23.7919 19.8726 23.7589C20.5966 23.7257 21.0913 23.6111 21.5239 23.443C21.971 23.2693 22.3499 23.0364 22.7277 22.6581C23.1059 22.2802 23.3383 21.9008 23.5125 21.4537C23.6797 21.0212 23.7944 20.5269 23.8284 19.8033C23.861 19.0779 23.8695 18.8467 23.8695 17C23.8695 15.1532 23.861 14.9214 23.8284 14.1961C23.7944 13.4722 23.6797 12.978 23.5125 12.5457C23.3383 12.0984 23.1059 11.719 22.7277 11.3411C22.3494 10.9628 21.9712 10.7305 21.5235 10.557C21.09 10.3888 20.5956 10.2742 19.8717 10.241C19.1463 10.208 18.9154 10.2 17.068 10.2H17.0702ZM16.4601 11.4254C16.6412 11.4251 16.8432 11.4254 17.0702 11.4254C18.8858 11.4254 19.101 11.4319 19.818 11.4645C20.481 11.4948 20.8408 11.6056 21.0805 11.6986C21.3978 11.8219 21.6241 11.9692 21.862 12.2072C22.1 12.4452 22.2473 12.6719 22.3708 12.9892C22.4639 13.2286 22.5748 13.5885 22.605 14.2515C22.6376 14.9683 22.6447 15.1836 22.6447 16.9984C22.6447 18.8131 22.6376 19.0285 22.605 19.7453C22.5747 20.4083 22.4639 20.7681 22.3708 21.0076C22.2476 21.3249 22.1 21.5509 21.862 21.7887C21.6239 22.0267 21.398 22.174 21.0805 22.2973C20.8411 22.3908 20.481 22.5013 19.818 22.5316C19.1011 22.5642 18.8858 22.5713 17.0702 22.5713C15.2544 22.5713 15.0392 22.5642 14.3224 22.5316C13.6594 22.501 13.2995 22.3902 13.0597 22.2972C12.7423 22.1739 12.5157 22.0266 12.2777 21.7886C12.0397 21.5506 11.8923 21.3245 11.7688 21.007C11.6757 20.7676 11.5648 20.4077 11.5346 19.7447C11.502 19.0279 11.4955 18.8126 11.4955 16.9967C11.4955 15.1808 11.502 14.9666 11.5346 14.2498C11.5649 13.5868 11.6757 13.2269 11.7688 12.9872C11.8921 12.6699 12.0397 12.4432 12.2777 12.2052C12.5157 11.9672 12.7423 11.8199 13.0597 11.6964C13.2994 11.6029 13.6594 11.4924 14.3224 11.4619C14.9497 11.4336 15.1928 11.4251 16.4601 11.4237V11.4254ZM20.7 12.5545C20.2495 12.5545 19.884 12.9195 19.884 13.3702C19.884 13.8207 20.2495 14.1862 20.7 14.1862C21.1505 14.1862 21.516 13.8207 21.516 13.3702C21.516 12.9197 21.1505 12.5542 20.7 12.5542V12.5545ZM17.0702 13.5079C15.1416 13.5079 13.578 15.0714 13.578 17C13.578 18.9285 15.1416 20.4913 17.0702 20.4913C18.9987 20.4913 20.5617 18.9285 20.5617 17C20.5617 15.0714 18.9986 13.5079 17.07 13.5079H17.0702ZM17.0702 14.7333C18.3219 14.7333 19.3369 15.748 19.3369 17C19.3369 18.2517 18.3219 19.2666 17.0702 19.2666C15.8182 19.2666 14.8035 18.2517 14.8035 17C14.8035 15.748 15.8182 14.7333 17.0702 14.7333V14.7333Z" fill="#838888"/>
</svg>
