<svg width="35" height="34" viewBox="0 0 35 34" fill="none" xmlns="http://www.w3.org/2000/svg">
<rect x="0.0693359" width="34" height="34" rx="6" fill="white"/>
<path fill-rule="evenodd" clip-rule="evenodd" d="M21.5761 14.4385C21.5803 14.5506 21.5817 14.6627 21.5817 14.7749C21.5817 18.1749 19.2432 22.1 14.9667 22.1C13.653 22.1 12.4315 21.6718 11.4023 20.9428C11.5843 20.9632 11.769 20.9785 11.9566 20.9785C13.0458 20.9785 14.049 20.5656 14.8448 19.8723C13.8274 19.857 12.9683 19.1077 12.6721 18.0882C12.8143 18.1188 12.9608 18.1341 13.1106 18.1341C13.3218 18.1341 13.5269 18.1036 13.7234 18.0424C12.6588 17.8079 11.8569 16.7681 11.8569 15.5192C11.8569 15.5039 11.8569 15.4988 11.8569 15.4886C12.1707 15.6772 12.5298 15.7944 12.9112 15.8097C12.2865 15.3458 11.8758 14.5557 11.8758 13.6637C11.8758 13.1947 11.9902 12.7512 12.1915 12.3689C13.3378 13.9287 15.0518 14.9533 16.984 15.0604C16.9443 14.8718 16.9239 14.673 16.9239 14.4742C16.9239 13.052 17.9649 11.9 19.2493 11.9C19.9179 11.9 20.5218 12.211 20.9457 12.7105C21.4764 12.5984 21.9735 12.3843 22.4233 12.0886C22.249 12.6901 21.8808 13.1947 21.3998 13.5107C21.8704 13.4495 22.3194 13.312 22.7357 13.1081C22.4233 13.623 22.0302 14.0766 21.5761 14.4385Z" fill="#858888"/>
</svg>
